<svg viewBox="0 0 245 89" version="1.1" xmlns="http://www.w3.org/2000/svg" style="fill-rule:evenodd;clip-rule:evenodd;stroke-linejoin:round;stroke-miterlimit:2;">
  <g transform="matrix(1,0,0,1,-175.532,-263.283)">
    <path d="M286.274,301.627L296.374,291.69C291.161,285.745 283.587,281.754 272.835,281.754C267.297,281.754 259.722,283.057 254.51,286.315C253.057,287.234 251.778,288.293 250.682,289.441C254.837,295.992 257.243,303.761 257.243,312.092C257.243,312.571 257.232,313.048 257.216,313.523C259.785,314.436 262.95,315.324 266.89,316.369C271.939,317.672 278.863,319.301 278.863,324.27C278.863,326.224 277.641,328.586 274.791,330.378C270.962,332.74 266.32,332.821 263.958,332.821C262.817,332.821 257.769,332.496 254.266,330.378C253.948,330.185 253.653,329.985 253.382,329.78C251.984,332.817 250.238,335.661 248.195,338.26C253.529,340.326 258.443,341.047 262.574,341.047C269.986,341.047 279.27,339.255 285.704,334.369C288.034,332.587 290.338,330.216 291.912,327.371L291.485,329.401C291.241,330.704 290.996,331.844 290.996,333.066C290.996,336.731 293.522,338.441 295.232,339.255C298.082,340.64 301.341,340.722 303.947,340.722C308.093,340.722 311.275,340.239 313.611,339.678C314.522,339.46 318.473,338.156 321.29,337.207C324.673,339.381 329.151,340.722 334.075,340.722C340.51,340.722 347.351,338.441 352.564,332.659C354.022,331.019 355.253,329.198 356.224,327.259L353.534,339.907L366.891,339.907L372.348,314.007C372.674,312.297 373.244,310.668 374.71,309.12C375.932,307.817 377.642,307.003 379.434,307.003C381.615,307.003 383.476,308.4 383.733,309.726C380.754,313.943 378.939,319.086 378.939,324.188C378.939,327.201 379.591,331.6 383.418,335.428C385.21,337.219 389.69,340.803 398.242,340.803C402.721,340.803 409.075,340.07 415.916,336.894L417.301,327.283L412.821,327.283C410.459,331.356 406.305,332.739 402.477,332.739C398.812,332.739 395.88,331.274 394.332,329.319C393.111,327.853 392.378,325.654 392.46,323.292C396.531,323.211 405.246,322.559 411.681,319.219C417.708,316.043 419.744,311.645 419.744,308.469C419.744,303.256 414.694,298.288 406.631,298.288C402.506,298.288 398.292,299.265 394.578,300.916C391.404,298.91 386.883,298.288 385.38,298.288C383.262,298.288 381.226,298.695 379.352,299.591C377.072,300.65 375.688,302.034 374.71,303.175L375.85,298.288L358.584,299.102L357.688,303.093C359.073,303.011 360.701,303.663 360.701,305.7C360.701,306.188 360.62,306.677 360.376,307.735L358.72,315.523C358.431,310.207 356.298,306.205 352.971,303.256C350.039,300.65 345.315,298.288 338.799,298.288C336.493,298.288 334.225,298.566 332.055,299.102L311.277,299.102L314.046,285.745L300.689,288.677L299.06,295.845C298.571,297.881 296.861,299.102 294.336,299.102L292.626,299.102L291.404,304.641L296.698,304.641L293.84,318.215C292.914,309.831 285.016,306.498 280.572,304.967C273.65,302.523 267.867,301.79 263.713,299.51C262.329,298.776 260.863,297.637 260.863,295.681C260.863,293.075 264.203,289.655 271.451,289.655C280.085,289.655 282.528,293.401 282.528,296.17C282.528,297.228 282.202,298.451 281.876,299.265L286.274,301.627ZM392.703,317.184C394.332,310.016 399.057,304.966 403.292,304.966C405.491,304.966 406.957,306.595 406.957,308.55C406.957,309.853 406.549,312.378 402.966,314.659C399.953,316.613 395.962,317.509 392.703,317.184ZM314.598,328.895C313.143,332.653 311.227,334.206 308.426,334.206C305.983,334.206 304.68,332.903 304.68,330.948C304.68,330.133 304.843,329.237 305.168,327.772L310.055,304.641L321.405,304.641C321.227,304.801 321.053,304.963 320.881,305.129C316.239,309.609 313.551,316.043 313.551,322.315C313.551,324.684 313.889,326.884 314.598,328.895ZM338.474,306.107C341.162,306.107 342.872,307.328 343.849,308.794C345.152,310.749 345.233,313.356 345.233,315.392C345.233,318.976 344.175,323.211 342.627,326.387C339.695,332.496 335.704,333.066 334.238,333.066C331.551,333.066 327.071,331.436 327.071,324.27C327.071,320.686 328.293,315.799 329.596,312.949C331.062,309.772 333.587,306.107 338.474,306.107Z" style="fill:white;fill-rule:nonzero;"/>
    <path d="M214.885,272.74C215.235,272.74 215.584,272.745 215.932,272.755C217.06,276.83 220.796,279.823 225.23,279.823C228.003,279.823 230.503,278.652 232.262,276.778C245.28,283.196 254.238,296.599 254.238,312.093C254.238,333.826 236.618,351.446 214.885,351.446C204.012,351.446 194.168,347.036 187.046,339.907L227.201,339.907L228.178,335.346L226.142,335.346C224.513,335.346 220.114,335.184 220.114,331.681C220.114,330.867 220.196,330.215 220.441,329.237L230.296,282.894L220.766,282.894C215.554,287.944 210.83,290.876 203.337,291.527L202.115,297.392C206.594,297.473 210.015,296.741 213.355,295.03L206.269,328.423L206.233,328.588L206.197,328.751L206.16,328.913L206.124,329.075L206.087,329.235L206.048,329.394L206.033,329.456L206.01,329.552L205.969,329.709L205.928,329.864L205.885,330.018L205.841,330.171L205.808,330.279L205.795,330.323L205.747,330.472L205.697,330.621L205.65,330.755L205.645,330.768L205.591,330.913L205.535,331.057L205.475,331.199L205.413,331.339L205.348,331.479L205.281,331.616L205.209,331.751L205.182,331.8L205.173,331.817L205.169,331.823L205.103,331.937L205.098,331.946L205.093,331.956L205.024,332.068L205.01,332.091L204.937,332.203L204.929,332.215L204.925,332.221L204.889,332.273L204.84,332.343L204.832,332.355L204.827,332.361L204.823,332.367L204.819,332.373L204.814,332.379L204.81,332.386L204.805,332.391L204.801,332.397L204.8,332.399L204.797,332.404L204.783,332.421L204.778,332.428L204.765,332.445L204.76,332.452L204.756,332.458L204.752,332.463L204.747,332.469L204.733,332.487L204.728,332.493L204.724,332.5L204.72,332.506L204.714,332.512L204.71,332.518L204.706,332.523L204.706,332.523L204.696,332.536L204.687,332.547L204.682,332.553L204.677,332.559L204.673,332.565L204.668,332.571L204.663,332.577L204.658,332.583L204.654,332.589L204.649,332.595L204.644,332.601L204.639,332.606L204.635,332.612L204.625,332.624L204.621,332.63L204.591,332.665L204.576,332.682L204.572,332.688L204.556,332.705L204.551,332.711L204.547,332.717L204.532,332.734L204.525,332.743L204.506,332.764L204.411,332.868L204.399,332.882L204.288,332.997L204.171,333.11L204.169,333.111L204.141,333.137L204.113,333.163L204.084,333.188L204.056,333.215L204.049,333.22L204.027,333.239L203.997,333.265L203.968,333.29L203.938,333.315L203.923,333.329L203.908,333.34L203.878,333.365L203.847,333.39L203.816,333.414L203.791,333.435L203.784,333.439L203.753,333.463L203.721,333.488L203.623,333.559L203.59,333.583C203.512,333.638 203.432,333.692 203.35,333.745L203.314,333.767L203.277,333.79L203.241,333.813L203.167,333.856L203.13,333.878L203.092,333.9L202.977,333.965L202.939,333.986L202.899,334.007L202.859,334.028L202.819,334.049L202.779,334.069L202.738,334.09L202.704,334.107L202.697,334.111L202.655,334.13L202.614,334.151L202.571,334.17L202.486,334.21L202.442,334.229L202.399,334.248L202.355,334.268L202.336,334.276L202.311,334.287L202.266,334.306L202.221,334.325L202.129,334.361L202.083,334.379L202.037,334.397L201.989,334.416L201.942,334.433L201.941,334.434L201.894,334.451L201.846,334.469L201.797,334.486L201.748,334.503L201.733,334.509L201.519,334.579L201.518,334.58L201.492,334.588L201.466,334.596L201.44,334.604L201.415,334.612L201.389,334.62L201.363,334.629L201.337,334.636L201.311,334.644L201.294,334.649L201.257,334.66L201.204,334.676L201.178,334.683L201.151,334.691L201.096,334.706L201.069,334.714L201.042,334.721L201.015,334.728L200.987,334.735L200.96,334.743L200.932,334.75L200.904,334.757L200.876,334.765L200.849,334.772L200.826,334.778L200.82,334.779L200.792,334.786L200.763,334.794L200.735,334.8L200.707,334.808L200.678,334.814L200.649,334.822L200.62,334.828L200.579,334.838L200.563,334.842L200.533,334.848L200.504,334.855L200.474,334.862L200.445,334.868L200.415,334.875L200.356,334.888L200.326,334.894L200.325,334.895L200.295,334.901L200.265,334.907L200.235,334.913L200.205,334.92L200.174,334.926L200.144,334.932L200.112,334.938L200.082,334.945L200.062,334.949L200.051,334.95L200.02,334.956L199.989,334.962L199.957,334.969L199.926,334.974L199.895,334.98L199.862,334.986L199.83,334.991L199.799,334.997L199.791,334.999L199.767,335.003L199.735,335.009L199.702,335.014L199.67,335.019L199.661,335.021L199.422,335.06L199.394,335.065L199.364,335.069L199.223,335.09L198.926,335.131L198.729,335.156L198.695,335.159L198.68,335.161L198.665,335.163L198.65,335.165L198.62,335.168L198.62,335.169L198.59,335.172L198.56,335.175L198.53,335.178L198.5,335.181L198.484,335.184L198.439,335.188L198.424,335.19L198.393,335.193L198.348,335.198L198.332,335.199L198.239,335.209L198.193,335.213L198.146,335.218L198.13,335.219L198.036,335.228L198.02,335.229L197.988,335.232L197.98,335.234L197.972,335.234L197.925,335.238L197.909,335.239L197.861,335.243L197.845,335.245L197.813,335.248L197.797,335.248L197.78,335.25L197.732,335.254L197.715,335.255L197.699,335.256L197.645,335.261L197.301,335.285L197.269,335.286L197.226,335.288L197.218,335.288L197.169,335.288L197.148,335.289L197.1,335.29L197.059,335.29L197.017,335.291L196.954,335.292L196.923,335.292L196.832,335.293L196.815,335.294L196.695,335.294L196.567,335.295L196.541,335.295L196.425,335.297L196.373,335.297L196.274,335.298L196.191,335.299L196.112,335.299L195.994,335.299L195.941,335.3L195.786,335.301L195.759,335.301L195.57,335.302L195.564,335.302L195.371,335.304L195.331,335.304L195.165,335.304L195.086,335.304L194.95,335.305L194.832,335.306L194.728,335.307L194.567,335.307L194.499,335.307L194.293,335.308L194.263,335.309L194.021,335.309L194.011,335.309L193.774,335.31L193.72,335.31L193.52,335.312L193.422,335.312L193.262,335.313L193.117,335.313L192.999,335.313L192.806,335.314L192.731,335.314L192.489,335.314L192.459,335.315L192.184,335.316L192.167,335.316L191.905,335.317L191.842,335.317L191.624,335.317L191.512,335.318L191.34,335.319L191.179,335.319L191.055,335.32L190.844,335.32L190.767,335.32L190.507,335.321L190.478,335.321L190.189,335.322L190.168,335.322L189.899,335.322L189.829,335.323L189.609,335.324L189.49,335.324L189.319,335.325L189.151,335.325L189.029,335.326L188.813,335.326L188.741,335.326L188.478,335.327L188.454,335.327L188.169,335.328L188.145,335.328L187.886,335.328L187.815,335.328L187.606,335.329L187.487,335.329L187.329,335.33L187.165,335.33L187.055,335.331L186.848,335.331L186.784,335.331L186.536,335.332L186.518,335.332L186.256,335.333L186.23,335.333L185.999,335.333L185.931,335.333L185.748,335.334L185.64,335.334L185.503,335.335L185.262,335.335L185.081,335.336L185.029,335.336L184.815,335.336L184.802,335.336L184.583,335.337L184.558,335.337L184.371,335.338L184.312,335.338L184.167,335.339L183.972,335.339L183.855,335.339L183.786,335.339L183.644,335.34L183.446,335.34L183.44,335.341L183.262,335.341L183.134,335.341C178.355,328.827 175.532,320.79 175.532,312.093C175.532,290.36 193.152,272.74 214.885,272.74Z" style="fill:rgb(230,12,128);"/>
    <path d="M225.23,263.283C229.037,263.283 232.124,266.369 232.124,270.176C232.124,273.984 229.037,277.07 225.23,277.07C221.423,277.07 218.336,273.984 218.336,270.176C218.336,266.369 221.423,263.283 225.23,263.283Z" style="fill:rgb(230,12,128);"/>
  </g>
</svg>
