<svg viewBox="0 0 245 89" version="1.1" xmlns="http://www.w3.org/2000/svg" style="fill-rule:evenodd;clip-rule:evenodd;stroke-linejoin:round;stroke-miterlimit:2;">
  <g transform="matrix(1,0,0,1,-175.532,-491.283)">
    <path d="M286.274,529.627L296.374,519.691C291.161,513.746 283.587,509.755 272.835,509.755C267.297,509.755 259.722,511.057 254.51,514.315C253.057,515.234 251.778,516.293 250.682,517.442C254.837,523.992 257.243,531.762 257.243,540.092C257.243,540.571 257.232,541.048 257.216,541.523C259.785,542.437 262.95,543.324 266.89,544.369C271.939,545.672 278.863,547.301 278.863,552.27C278.863,554.224 277.641,556.586 274.791,558.378C270.962,560.74 266.32,560.822 263.958,560.822C262.817,560.822 257.769,560.496 254.266,558.378C253.948,558.185 253.653,557.986 253.382,557.78C251.984,560.817 250.238,563.661 248.195,566.26C253.529,568.326 258.443,569.047 262.574,569.047C269.986,569.047 279.27,567.256 285.704,562.369C288.034,560.587 290.338,558.216 291.912,555.371L291.485,557.401C291.241,558.704 290.996,559.844 290.996,561.066C290.996,564.731 293.522,566.441 295.232,567.255C298.082,568.64 301.341,568.722 303.947,568.722C308.093,568.722 311.275,568.239 313.611,567.679C314.522,567.46 318.473,566.156 321.29,565.208C324.673,567.381 329.151,568.722 334.075,568.722C340.51,568.722 347.351,566.441 352.564,560.659C354.022,559.019 355.253,557.198 356.224,555.259L353.534,567.907L366.891,567.907L372.348,542.007C372.674,540.297 373.244,538.668 374.71,537.12C375.932,535.817 377.642,535.003 379.434,535.003C381.615,535.003 383.476,536.401 383.733,537.726C380.754,541.943 378.939,547.086 378.939,552.188C378.939,555.202 379.591,559.6 383.418,563.428C385.21,565.22 389.69,568.803 398.242,568.803C402.721,568.803 409.075,568.071 415.916,564.894L417.301,555.283L412.821,555.283C410.459,559.356 406.305,560.74 402.477,560.74C398.812,560.74 395.88,559.274 394.332,557.319C393.111,555.854 392.378,553.654 392.46,551.292C396.531,551.211 405.246,550.559 411.681,547.22C417.708,544.043 419.744,539.646 419.744,536.469C419.744,531.257 414.694,526.288 406.631,526.288C402.506,526.288 398.292,527.266 394.578,528.917C391.404,526.91 386.883,526.288 385.38,526.288C383.262,526.288 381.226,526.695 379.352,527.591C377.072,528.65 375.688,530.034 374.71,531.175L375.85,526.288L358.584,527.102L357.688,531.093C359.073,531.012 360.701,531.664 360.701,533.7C360.701,534.188 360.62,534.677 360.376,535.736L358.72,543.523C358.431,538.207 356.298,534.205 352.971,531.257C350.039,528.65 345.315,526.288 338.799,526.288C336.493,526.288 334.225,526.566 332.055,527.102L311.277,527.102L314.046,513.746L300.689,516.677L299.06,523.845C298.571,525.881 296.861,527.102 294.336,527.102L292.626,527.102L291.404,532.641L296.698,532.641L293.84,546.215C292.914,537.831 285.016,534.499 280.572,532.967C273.65,530.523 267.867,529.79 263.713,527.51C262.329,526.776 260.863,525.637 260.863,523.682C260.863,521.076 264.203,517.655 271.451,517.655C280.085,517.655 282.528,521.401 282.528,524.17C282.528,525.229 282.202,526.451 281.876,527.265L286.274,529.627ZM392.703,545.184C394.332,538.016 399.057,532.967 403.292,532.967C405.491,532.967 406.957,534.595 406.957,536.551C406.957,537.854 406.549,540.378 402.966,542.659C399.953,544.613 395.962,545.509 392.703,545.184ZM314.598,556.896C313.143,560.653 311.227,562.206 308.426,562.206C305.983,562.206 304.68,560.903 304.68,558.948C304.68,558.134 304.843,557.237 305.168,555.772L310.055,532.641L321.405,532.641C321.227,532.801 321.053,532.964 320.881,533.129C316.239,537.609 313.551,544.043 313.551,550.315C313.551,552.684 313.889,554.884 314.598,556.896ZM338.474,534.107C341.162,534.107 342.872,535.328 343.849,536.795C345.152,538.75 345.233,541.356 345.233,543.392C345.233,546.976 344.175,551.211 342.627,554.387C339.695,560.496 335.704,561.066 334.238,561.066C331.551,561.066 327.071,559.437 327.071,552.27C327.071,548.686 328.293,543.799 329.596,540.949C331.062,537.772 333.587,534.107 338.474,534.107Z" style="fill:rgb(43,43,42);fill-rule:nonzero;"/>
    <path d="M214.885,500.74C215.235,500.74 215.584,500.745 215.932,500.755C217.06,504.83 220.796,507.823 225.23,507.823C228.003,507.823 230.503,506.652 232.262,504.779C245.28,511.197 254.238,524.599 254.238,540.093C254.238,561.826 236.618,579.446 214.885,579.446C204.012,579.446 194.168,575.037 187.046,567.907L227.201,567.907L228.178,563.346L226.142,563.346C224.513,563.346 220.114,563.184 220.114,559.682C220.114,558.867 220.196,558.215 220.441,557.237L230.296,510.894L220.766,510.894C215.554,515.944 210.83,518.876 203.337,519.528L202.115,525.392C206.594,525.474 210.015,524.741 213.355,523.03L206.269,556.423L206.233,556.588L206.197,556.751L206.16,556.913L206.124,557.075L206.087,557.235L206.048,557.394L206.033,557.456L206.01,557.552L205.969,557.709L205.928,557.864L205.885,558.018L205.841,558.171L205.808,558.279L205.795,558.323L205.747,558.472L205.697,558.621L205.65,558.755L205.645,558.768L205.591,558.914L205.535,559.057L205.475,559.199L205.413,559.34L205.348,559.479L205.281,559.616L205.209,559.751L205.182,559.8L205.173,559.817L205.169,559.824L205.103,559.937L205.098,559.947L205.093,559.956L205.024,560.068L205.01,560.091L204.937,560.203L204.929,560.215L204.925,560.221L204.889,560.274L204.84,560.343L204.832,560.355L204.827,560.361L204.823,560.367L204.819,560.373L204.814,560.379L204.81,560.386L204.805,560.392L204.801,560.398L204.8,560.4L204.797,560.404L204.783,560.421L204.778,560.428L204.765,560.445L204.76,560.452L204.756,560.458L204.752,560.464L204.747,560.47L204.733,560.488L204.728,560.494L204.724,560.5L204.72,560.506L204.714,560.512L204.71,560.518L204.706,560.523L204.706,560.523L204.696,560.536L204.687,560.547L204.682,560.553L204.677,560.559L204.673,560.565L204.668,560.571L204.663,560.577L204.658,560.583L204.654,560.589L204.649,560.595L204.644,560.601L204.639,560.606L204.635,560.612L204.625,560.624L204.621,560.63L204.591,560.665L204.576,560.682L204.572,560.688L204.556,560.706L204.551,560.711L204.547,560.717L204.532,560.735L204.525,560.743L204.506,560.765L204.411,560.868L204.399,560.882L204.288,560.997L204.171,561.11L204.169,561.111L204.141,561.137L204.113,561.163L204.084,561.188L204.056,561.215L204.049,561.22L204.027,561.239L203.997,561.265L203.968,561.29L203.938,561.315L203.923,561.329L203.908,561.341L203.878,561.366L203.847,561.39L203.816,561.414L203.791,561.435L203.784,561.439L203.753,561.463L203.721,561.488L203.623,561.559L203.59,561.583C203.512,561.639 203.432,561.692 203.35,561.745L203.314,561.768L203.277,561.79L203.241,561.813L203.167,561.857L203.13,561.878L203.092,561.9L202.977,561.965L202.939,561.986L202.899,562.007L202.859,562.028L202.819,562.049L202.779,562.069L202.738,562.09L202.704,562.108L202.697,562.111L202.655,562.13L202.614,562.151L202.571,562.17L202.486,562.21L202.442,562.229L202.399,562.248L202.355,562.268L202.336,562.277L202.311,562.287L202.266,562.306L202.221,562.325L202.129,562.361L202.083,562.38L202.037,562.398L201.989,562.416L201.942,562.433L201.941,562.434L201.894,562.452L201.846,562.469L201.797,562.486L201.748,562.503L201.733,562.509L201.519,562.58L201.518,562.581L201.492,562.588L201.466,562.597L201.44,562.605L201.415,562.613L201.389,562.62L201.363,562.629L201.337,562.637L201.311,562.645L201.294,562.65L201.257,562.66L201.204,562.676L201.178,562.683L201.151,562.691L201.096,562.706L201.069,562.714L201.042,562.721L201.015,562.728L200.987,562.736L200.96,562.743L200.932,562.75L200.904,562.757L200.876,562.765L200.849,562.772L200.826,562.779L200.82,562.779L200.792,562.787L200.763,562.794L200.735,562.8L200.707,562.808L200.678,562.814L200.649,562.822L200.62,562.828L200.579,562.838L200.563,562.842L200.533,562.849L200.504,562.855L200.474,562.862L200.445,562.868L200.415,562.875L200.356,562.888L200.326,562.895L200.325,562.895L200.295,562.901L200.265,562.908L200.235,562.913L200.205,562.92L200.174,562.926L200.144,562.932L200.112,562.938L200.082,562.945L200.062,562.949L200.051,562.95L200.02,562.956L199.989,562.962L199.957,562.969L199.926,562.975L199.895,562.98L199.862,562.986L199.83,562.991L199.799,562.997L199.791,562.999L199.767,563.003L199.735,563.009L199.702,563.014L199.67,563.02L199.661,563.021L199.422,563.06L199.394,563.065L199.364,563.069L199.223,563.09L198.926,563.131L198.729,563.156L198.695,563.16L198.68,563.161L198.665,563.163L198.65,563.165L198.62,563.168L198.62,563.169L198.59,563.172L198.56,563.175L198.53,563.179L198.5,563.181L198.484,563.184L198.439,563.188L198.424,563.19L198.393,563.193L198.348,563.198L198.332,563.2L198.239,563.209L198.193,563.213L198.146,563.218L198.13,563.219L198.036,563.228L198.02,563.23L197.988,563.232L197.98,563.234L197.972,563.234L197.925,563.238L197.909,563.239L197.861,563.243L197.845,563.245L197.813,563.248L197.797,563.248L197.78,563.25L197.732,563.254L197.715,563.255L197.699,563.257L197.645,563.261L197.301,563.285L197.269,563.286L197.226,563.288L197.218,563.288L197.169,563.289L197.148,563.289L197.1,563.29L197.059,563.291L197.017,563.291L196.954,563.292L196.923,563.292L196.832,563.293L196.815,563.294L196.695,563.294L196.567,563.296L196.541,563.296L196.425,563.297L196.373,563.297L196.274,563.298L196.191,563.299L196.112,563.299L195.994,563.299L195.941,563.3L195.786,563.301L195.759,563.302L195.57,563.302L195.564,563.302L195.371,563.304L195.331,563.304L195.165,563.304L195.086,563.304L194.95,563.305L194.832,563.306L194.728,563.307L194.567,563.308L194.499,563.308L194.293,563.308L194.263,563.309L194.021,563.31L194.011,563.31L193.774,563.31L193.72,563.31L193.52,563.312L193.422,563.312L193.262,563.313L193.117,563.313L192.999,563.313L192.806,563.314L192.731,563.314L192.489,563.315L192.459,563.316L192.184,563.316L192.167,563.316L191.905,563.317L191.842,563.317L191.624,563.318L191.512,563.318L191.34,563.319L191.179,563.319L191.055,563.32L190.844,563.32L190.767,563.321L190.507,563.321L190.478,563.321L190.189,563.322L190.168,563.322L189.899,563.323L189.829,563.323L189.609,563.324L189.49,563.324L189.319,563.325L189.151,563.325L189.029,563.326L188.813,563.326L188.741,563.326L188.478,563.327L188.454,563.327L188.169,563.328L188.145,563.328L187.886,563.329L187.815,563.329L187.606,563.329L187.487,563.329L187.329,563.33L187.165,563.33L187.055,563.331L186.848,563.331L186.784,563.331L186.536,563.332L186.518,563.332L186.256,563.333L186.23,563.333L185.999,563.334L185.931,563.334L185.748,563.335L185.64,563.335L185.503,563.335L185.262,563.335L185.081,563.336L185.029,563.336L184.815,563.337L184.802,563.337L184.583,563.337L184.558,563.337L184.371,563.338L184.312,563.338L184.167,563.339L183.972,563.339L183.855,563.34L183.786,563.34L183.644,563.34L183.446,563.34L183.44,563.341L183.262,563.341L183.134,563.342C178.355,556.828 175.532,548.79 175.532,540.093C175.532,518.361 193.152,500.74 214.885,500.74Z" style="fill:rgb(230,12,128);"/>
    <path d="M225.23,491.283C229.037,491.283 232.124,494.369 232.124,498.176C232.124,501.984 229.037,505.07 225.23,505.07C221.423,505.07 218.336,501.984 218.336,498.176C218.336,494.369 221.423,491.283 225.23,491.283Z" style="fill:rgb(230,12,128);"/>
  </g>
</svg>
